<svg width="220" height="90" viewBox="0 0 1031 381" fill="none" xmlns="http://www.w3.org/2000/svg">
<path d="M902.99 331.552H913.251V369.646H902.99V331.552ZM921.238 370.005C920.017 370.005 918.945 369.902 918.021 369.697C917.133 369.492 916.32 369.133 915.58 368.621V362.109H916.191C917.004 362.109 917.577 362.075 917.91 362.007C918.28 361.904 918.557 361.699 918.742 361.391C918.927 361.015 919.038 360.469 919.075 359.751C919.112 359.238 919.13 358.179 919.13 356.572C919.13 354.966 919.112 353.906 919.075 353.393C919.038 352.641 918.927 352.095 918.742 351.753C918.594 351.411 918.317 351.206 917.91 351.137C917.392 351.069 916.819 351.035 916.191 351.035H915.58V344.524C916.32 343.977 917.115 343.618 917.965 343.447C918.816 343.242 919.907 343.139 921.238 343.139C924.196 343.139 926.322 344.13 927.616 346.113C928.91 348.164 929.557 351.684 929.557 356.675C929.557 361.699 928.91 365.203 927.616 367.185C926.95 368.176 926.082 368.894 925.009 369.338C923.974 369.783 922.717 370.005 921.238 370.005ZM940.602 331.552H950.862V369.646H940.602V331.552ZM978.529 356.623C978.529 354.88 978.511 353.718 978.474 353.137C978.437 352.317 978.326 351.701 978.141 351.291C977.956 350.847 977.66 350.574 977.254 350.471C976.81 350.368 976.2 350.317 975.423 350.317H974.647V343.088H975.423C978.64 343.088 981.155 343.327 982.967 343.806C984.778 344.25 986.128 345.002 987.015 346.062C987.829 347.019 988.346 348.301 988.568 349.907C988.827 351.479 988.957 353.718 988.957 356.623C988.957 359.324 988.864 361.426 988.679 362.93C988.531 364.399 988.143 365.613 987.514 366.57C986.812 367.629 985.758 368.433 984.353 368.979C982.948 369.492 981.007 369.817 978.529 369.954V356.623ZM975.423 370.056C972.207 370.056 969.692 369.834 967.88 369.39C966.069 368.945 964.719 368.193 963.832 367.134C963.018 366.177 962.482 364.912 962.223 363.34C962.001 361.767 961.89 359.529 961.89 356.623C961.89 353.957 961.983 351.872 962.168 350.368C962.353 348.864 962.759 347.617 963.388 346.626C964.053 345.532 965.089 344.729 966.494 344.216C967.899 343.669 969.84 343.327 972.318 343.191V356.623C972.318 358.367 972.336 359.512 972.373 360.058C972.41 360.879 972.521 361.494 972.706 361.904C972.891 362.314 973.205 362.571 973.649 362.673C974.018 362.776 974.61 362.827 975.423 362.827H976.2V370.056H975.423ZM1007.5 369.492C1006.02 369.492 1004.76 369.27 1003.72 368.826C1002.69 368.347 1001.84 367.595 1001.17 366.57C999.842 364.587 999.177 361.135 999.177 356.213C999.177 351.257 999.842 347.822 1001.17 345.908C1001.84 344.951 1002.69 344.25 1003.72 343.806C1004.76 343.361 1006.02 343.139 1007.5 343.139C1008.75 343.139 1009.83 343.242 1010.71 343.447C1011.6 343.652 1012.41 344.028 1013.15 344.575V351.035H1012.54C1011.73 351.035 1011.14 351.086 1010.77 351.189C1010.44 351.257 1010.18 351.428 1009.99 351.701C1009.81 352.077 1009.7 352.607 1009.66 353.291C1009.62 353.769 1009.6 354.778 1009.6 356.316C1009.6 357.854 1009.62 358.862 1009.66 359.341C1009.7 360.058 1009.81 360.588 1009.99 360.93C1010.18 361.238 1010.47 361.426 1010.88 361.494C1011.4 361.562 1011.95 361.597 1012.54 361.597H1013.15V368.108C1012.41 368.655 1011.62 369.031 1010.77 369.236C1009.92 369.407 1008.83 369.492 1007.5 369.492ZM1011.21 380.208C1009.36 380.208 1007.14 380.105 1004.56 379.9L1001.23 379.592V372.979H1008.66C1009.99 372.979 1011.29 372.944 1012.54 372.876C1013.47 372.808 1014.13 372.637 1014.54 372.363C1014.98 372.124 1015.26 371.697 1015.37 371.082C1015.45 370.261 1015.48 369.39 1015.48 368.467V343.498H1025.74V366.775C1025.74 369.441 1025.61 371.526 1025.36 373.03C1025.1 374.568 1024.54 375.85 1023.69 376.875C1022.73 378.003 1021.25 378.84 1019.25 379.387C1017.29 379.934 1014.61 380.208 1011.21 380.208Z" fill="#500D74"/>
<path d="M577.935 143.048H622.398V175.041H577.935V143.048ZM577.935 194.814H622.398V308.122H577.935V194.814ZM753.343 225.252C749.337 224.659 743.568 224.363 736.038 224.363C731.071 224.363 727.545 224.659 725.463 225.252V193.037C736.839 193.186 748.616 194.519 760.793 197.036V225.918L753.343 225.252ZM723.781 309.899C711.283 309.899 701.348 308.492 693.979 305.678C686.608 302.863 681.159 298.717 677.636 293.236C674.43 288.497 672.348 282.943 671.387 276.573C670.584 270.204 670.185 261.91 670.185 251.69C670.185 242.359 670.584 234.583 671.387 228.362C672.187 222.141 673.87 216.661 676.434 211.921C679.477 206.441 684.043 202.219 690.133 199.258C696.382 196.147 704.794 194.221 715.369 193.481V251.468C715.369 257.984 715.528 262.872 715.85 266.131C716.33 269.39 717.21 271.908 718.493 273.685C719.935 275.462 721.938 276.722 724.502 277.462C727.225 278.202 731.071 278.573 736.038 278.573C744.53 278.573 750.378 278.351 753.583 277.906L761.755 277.018V305.9C749.897 308.566 737.24 309.899 723.781 309.899ZM809.544 143.048H854.007V308.122H809.544V143.048ZM879.003 254.578C879.003 246.729 878.923 241.544 878.762 239.026C878.442 234.879 878.041 232.139 877.56 230.806C876.921 229.324 875.799 228.436 874.196 228.14C872.595 227.696 870.03 227.473 866.505 227.473H864.101V200.369C870.511 195.629 878.683 193.259 888.616 193.259C903.037 193.259 912.732 197.332 917.697 205.478C919.942 209.033 921.463 213.403 922.264 218.587C923.066 223.623 923.466 229.844 923.466 237.249V308.122H879.003V254.578ZM974.873 143.048H1019.34V175.041H974.873V143.048ZM974.873 194.814H1019.34V308.122H974.873V194.814Z" fill="#831290"/>
<path d="M577.935 143.049V141.34H576.086V143.049H577.935ZM622.398 143.049H624.247V141.34H622.398V143.049ZM622.398 175.042V176.751H624.247V175.042H622.398ZM577.935 175.042H576.086V176.751H577.935V175.042ZM577.935 194.815V193.106H576.086V194.815H577.935ZM622.398 194.815H624.247V193.106H622.398V194.815ZM622.398 308.123V309.832H624.247V308.123H622.398ZM577.935 308.123H576.086V309.832H577.935V308.123ZM577.935 144.758H622.398V141.34H577.935V144.758ZM620.55 143.049V175.042H624.247V143.049H620.55ZM622.398 173.333H577.935V176.751H622.398V173.333ZM579.784 175.042V143.049H576.086V175.042H579.784ZM577.935 196.524H622.398V193.106H577.935V196.524ZM620.55 194.815V308.123H624.247V194.815H620.55ZM622.398 306.414H577.935V309.832H622.398V306.414ZM579.784 308.123V194.815H576.086V308.123H579.784ZM753.344 225.253L753.051 226.94L753.107 226.948L753.164 226.953L753.344 225.253ZM725.464 225.253H723.615V227.567L726.008 226.887L725.464 225.253ZM725.464 193.038L725.49 191.329L723.615 191.305V193.038H725.464ZM760.794 197.037H762.643V195.668L761.197 195.369L760.794 197.037ZM760.794 225.919L760.615 227.62L762.643 227.801V225.919H760.794ZM693.979 305.679L693.273 307.258L693.979 305.679ZM677.636 293.237L679.224 292.364L679.215 292.347L679.204 292.331L677.636 293.237ZM671.387 276.574L669.55 276.773L669.553 276.791L669.555 276.81L671.387 276.574ZM671.387 228.363L669.551 228.161L671.387 228.363ZM676.434 211.923L674.789 211.141L674.78 211.159L676.434 211.923ZM690.134 199.259L690.993 200.771L691.01 200.763L690.134 199.259ZM715.37 193.482H717.218V191.638L715.229 191.778L715.37 193.482ZM715.85 266.132L714.009 266.288L714.013 266.325L714.018 266.363L715.85 266.132ZM718.494 273.686L716.956 274.635L716.984 274.674L717.015 274.712L718.494 273.686ZM724.503 277.463L723.95 279.093L723.965 279.099L723.979 279.102L724.503 277.463ZM753.584 277.907L753.368 276.21L753.338 276.214L753.308 276.217L753.584 277.907ZM761.755 277.019H763.604V275.096L761.539 275.322L761.755 277.019ZM761.755 305.901L762.192 307.562L763.604 307.244V305.901H761.755ZM753.636 223.566C749.483 222.951 743.599 222.655 736.039 222.655V226.073C743.539 226.073 749.191 226.369 753.051 226.94L753.636 223.566ZM736.039 222.655C731.062 222.655 727.291 222.946 724.92 223.619L726.008 226.887C727.801 226.376 731.08 226.073 736.039 226.073V222.655ZM727.313 225.253V193.038H723.615V225.253H727.313ZM725.438 194.747C736.675 194.894 748.324 196.21 760.389 198.705L761.197 195.369C748.908 192.828 737.004 191.479 725.49 191.329L725.438 194.747ZM758.945 197.037V225.919H762.643V197.037H758.945ZM760.972 224.219L753.521 223.552L753.164 226.953L760.615 227.62L760.972 224.219ZM723.781 308.191C711.404 308.191 701.74 306.793 694.684 304.1L693.273 307.258C700.958 310.192 711.164 311.609 723.781 311.609V308.191ZM694.684 304.1C687.623 301.403 682.515 297.479 679.224 292.364L676.046 294.111C679.807 299.957 685.593 304.327 693.273 307.258L694.684 304.1ZM679.204 292.331C676.155 287.823 674.149 282.505 673.218 276.338L669.555 276.81C670.548 283.381 672.705 289.171 676.068 294.143L679.204 292.331ZM673.223 276.376C672.434 270.101 672.034 261.879 672.034 251.691H668.337C668.337 261.943 668.738 270.311 669.55 276.773L673.223 276.376ZM672.034 251.691C672.034 242.398 672.434 234.695 673.223 228.565L669.551 228.161C668.738 234.473 668.337 242.322 668.337 251.691H672.034ZM673.223 228.565C674.003 222.505 675.634 217.22 678.087 212.686L674.78 211.159C672.106 216.103 670.372 221.78 669.551 228.161L673.223 228.565ZM678.078 212.703C680.944 207.546 685.231 203.576 690.993 200.771L689.272 197.746C682.859 200.867 678.013 205.338 674.789 211.141L678.078 212.703ZM691.01 200.763C696.947 197.808 705.076 195.918 715.508 195.186L715.229 191.778C704.512 192.529 695.817 194.489 689.258 197.755L691.01 200.763ZM713.521 193.482V251.469H717.218V193.482H713.521ZM713.521 251.469C713.521 257.997 713.68 262.948 714.009 266.288L717.692 265.977C717.377 262.8 717.218 257.975 717.218 251.469H713.521ZM714.018 266.363C714.517 269.754 715.457 272.557 716.956 274.635L720.032 272.738C718.967 271.261 718.143 269.029 717.681 265.902L714.018 266.363ZM717.015 274.712C718.716 276.808 721.062 278.259 723.95 279.093L725.054 275.833C722.815 275.185 721.154 274.118 719.973 272.661L717.015 274.712ZM723.979 279.102C726.954 279.912 731.007 280.283 736.039 280.283V276.865C731.136 276.865 727.498 276.496 725.024 275.824L723.979 279.102ZM736.039 280.283C744.521 280.283 750.498 280.062 753.857 279.598L753.308 276.217C750.258 276.641 744.54 276.865 736.039 276.865V280.283ZM753.8 279.604L761.97 278.716L761.539 275.322L753.368 276.21L753.8 279.604ZM759.907 277.019V305.901H763.604V277.019H759.907ZM761.317 304.24C749.618 306.872 737.107 308.191 723.781 308.191V311.609C737.372 311.609 750.178 310.262 762.192 307.562L761.317 304.24ZM809.544 143.049V141.34H807.696V143.049H809.544ZM854.008 143.049H855.856V141.34H854.008V143.049ZM854.008 308.123V309.832H855.856V308.123H854.008ZM809.544 308.123H807.696V309.832H809.544V308.123ZM878.763 239.027L880.61 238.927L880.608 238.906L878.763 239.027ZM877.561 230.807L879.315 230.267L879.299 230.219L879.278 230.173L877.561 230.807ZM874.196 228.141L873.666 229.778L873.749 229.8L873.834 229.818L874.196 228.141ZM864.102 227.474H862.253V229.183H864.102V227.474ZM864.102 200.37L862.948 199.035L862.253 199.548V200.37H864.102ZM917.698 205.48L916.088 206.319L916.095 206.329L916.102 206.341L917.698 205.48ZM922.264 218.588L920.434 218.829L920.436 218.835L922.264 218.588ZM923.466 308.123V309.832H925.315V308.123H923.466ZM879.003 308.123H877.154V309.832H879.003V308.123ZM809.544 144.758H854.008V141.34H809.544V144.758ZM852.159 143.049V308.123H855.856V143.049H852.159ZM854.008 306.414H809.544V309.832H854.008V306.414ZM811.393 308.123V143.049H807.696V308.123H811.393ZM880.852 254.579C880.852 246.738 880.772 241.504 880.61 238.927L876.918 239.128C877.075 241.588 877.154 246.72 877.154 254.579H880.852ZM880.608 238.906C880.29 234.794 879.881 231.838 879.315 230.267L875.808 231.347C876.202 232.443 876.596 234.967 876.919 239.149L880.608 238.906ZM879.278 230.173C878.421 228.191 876.814 226.881 874.559 226.464L873.834 229.818C874.784 229.992 875.42 230.46 875.845 231.441L879.278 230.173ZM874.729 226.504C872.85 225.984 870.057 225.765 866.505 225.765V229.183C870.005 229.183 872.338 229.409 873.666 229.778L874.729 226.504ZM866.505 225.765H864.102V229.183H866.505V225.765ZM865.951 227.474V200.37H862.253V227.474H865.951ZM865.257 201.704C871.273 197.254 879.012 194.969 888.617 194.969V191.551C878.354 191.551 869.75 194.005 862.948 199.035L865.257 201.704ZM888.617 194.969C902.688 194.969 911.578 198.924 916.088 206.319L919.308 204.64C913.884 195.743 903.388 191.551 888.617 191.551V194.969ZM916.102 206.341C918.197 209.66 919.659 213.807 920.434 218.829L924.095 218.347C923.268 213.001 921.688 208.409 919.295 204.618L916.102 206.341ZM920.436 218.835C921.22 223.763 921.617 229.894 921.617 237.25H925.315C925.315 229.795 924.914 223.486 924.095 218.34L920.436 218.835ZM921.617 237.25V308.123H925.315V237.25H921.617ZM923.466 306.414H879.003V309.832H923.466V306.414ZM880.852 308.123V254.579H877.154V308.123H880.852ZM974.873 143.049V141.34H973.024V143.049H974.873ZM1019.34 143.049H1021.19V141.34H1019.34V143.049ZM1019.34 175.042V176.751H1021.19V175.042H1019.34ZM974.873 175.042H973.024V176.751H974.873V175.042ZM974.873 194.815V193.106H973.024V194.815H974.873ZM1019.34 194.815H1021.19V193.106H1019.34V194.815ZM1019.34 308.123V309.832H1021.19V308.123H1019.34ZM974.873 308.123H973.024V309.832H974.873V308.123ZM974.873 144.758H1019.34V141.34H974.873V144.758ZM1017.49 143.049V175.042H1021.19V143.049H1017.49ZM1019.34 173.333H974.873V176.751H1019.34V173.333ZM976.722 175.042V143.049H973.024V175.042H976.722ZM974.873 196.524H1019.34V193.106H974.873V196.524ZM1017.49 194.815V308.123H1021.19V194.815H1017.49ZM1019.34 306.414H974.873V309.832H1019.34V306.414ZM976.722 308.123V194.815H973.024V308.123H976.722Z" fill="black"/>
<path d="M993.257 186.827V120.129C992.776 121.011 989.272 124.328 979.093 130.539C968.916 136.751 962.049 144.068 959.888 146.949C957.089 150.89 953.168 161.417 959.888 172.005C966.61 182.592 984.935 186.297 993.257 186.827Z" fill="#622782"/>
<path d="M993.145 186.827V120.129C993.145 120.129 997.131 124.328 1007.31 130.539C1017.49 136.751 1024.35 144.068 1026.51 146.949C1029.31 150.89 1033.24 161.417 1026.51 172.005C1019.79 182.592 1001.47 186.297 993.145 186.827Z" fill="#622782"/>
<path d="M993.088 182.865V123.716C992.663 124.499 989.555 127.44 980.527 132.948C971.502 138.456 965.412 144.944 963.496 147.501C961.014 150.996 957.536 160.332 963.496 169.721C969.457 179.109 985.708 182.395 993.088 182.865Z" fill="#F9F5DF"/>
<path d="M992.992 182.865V123.716C992.992 123.716 996.527 127.44 1005.55 132.948C1014.58 138.456 1020.67 144.944 1022.58 147.501C1025.07 150.996 1028.54 160.332 1022.58 169.721C1016.62 179.109 1000.37 182.395 992.992 182.865Z" fill="#F9F5DF"/>
<path d="M1021.31 159.549C1021.31 171.302 1008.82 179.109 993.417 179.109C978.015 179.109 965.528 171.302 965.528 159.549C965.528 147.797 979.15 135.765 993.417 132.323C1004.7 135.295 1021.31 147.797 1021.31 159.549Z" fill="#8F2C9A"/>
<path d="M981.493 154.7C983.609 154.7 985.325 153.439 985.325 151.883C985.325 150.328 983.609 149.066 981.493 149.066C979.377 149.066 977.661 150.328 977.661 151.883C977.661 153.439 979.377 154.7 981.493 154.7Z" fill="#F9F5DF"/>
<path d="M992.988 150.005C995.105 150.005 996.82 148.744 996.82 147.189C996.82 145.633 995.105 144.372 992.988 144.372C990.872 144.372 989.156 145.633 989.156 147.189C989.156 148.744 990.872 150.005 992.988 150.005Z" fill="#F9F5DF"/>
<path d="M1004.48 154.7C1006.6 154.7 1008.32 153.439 1008.32 151.883C1008.32 150.328 1006.6 149.066 1004.48 149.066C1002.37 149.066 1000.65 150.328 1000.65 151.883C1000.65 153.439 1002.37 154.7 1004.48 154.7Z" fill="#F9F5DF"/>
<path d="M1004.48 164.4C1006.6 164.4 1008.32 163.138 1008.32 161.583C1008.32 160.027 1006.6 158.766 1004.48 158.766C1002.37 158.766 1000.65 160.027 1000.65 161.583C1000.65 163.138 1002.37 164.4 1004.48 164.4Z" fill="#F9F5DF"/>
<path d="M992.988 169.094C995.105 169.094 996.82 167.833 996.82 166.278C996.82 164.722 995.105 163.461 992.988 163.461C990.872 163.461 989.156 164.722 989.156 166.278C989.156 167.833 990.872 169.094 992.988 169.094Z" fill="#F9F5DF"/>
<path d="M981.493 164.4C983.609 164.4 985.325 163.138 985.325 161.583C985.325 160.027 983.609 158.766 981.493 158.766C979.377 158.766 977.661 160.027 977.661 161.583C977.661 163.138 979.377 164.4 981.493 164.4Z" fill="#F9F5DF"/>
<path d="M992.988 159.709C995.105 159.709 996.82 158.448 996.82 156.892C996.82 155.337 995.105 154.076 992.988 154.076C990.872 154.076 989.156 155.337 989.156 156.892C989.156 158.448 990.872 159.709 992.988 159.709Z" fill="#F9F5DF"/>
<path d="M601.314 186.827V120.129C600.833 121.011 597.33 124.328 587.15 130.539C576.973 136.751 570.106 144.068 567.945 146.949C565.146 150.89 561.225 161.417 567.945 172.005C574.667 182.592 592.992 186.297 601.314 186.827Z" fill="#622782"/>
<path d="M601.202 186.827V120.129C601.202 120.129 605.188 124.328 615.366 130.539C625.545 136.751 632.409 144.068 634.571 146.949C637.372 150.89 641.293 161.417 634.571 172.005C627.849 182.592 609.525 186.297 601.202 186.827Z" fill="#622782"/>
<path d="M601.145 182.865V123.716C600.72 124.499 597.612 127.44 588.585 132.948C579.559 138.456 573.469 144.944 571.554 147.501C569.071 150.996 565.593 160.332 571.554 169.721C577.514 179.109 593.765 182.395 601.145 182.865Z" fill="#F9F5DF"/>
<path d="M601.049 182.865V123.716C601.049 123.716 604.584 127.44 613.609 132.948C622.635 138.456 628.725 144.944 630.64 147.501C633.125 150.996 636.601 160.332 630.64 169.721C624.68 179.109 608.429 182.395 601.049 182.865Z" fill="#F9F5DF"/>
<path d="M629.364 159.549C629.364 171.302 616.877 179.109 601.475 179.109C586.073 179.109 573.586 171.302 573.586 159.549C573.586 147.797 587.208 135.765 601.475 132.323C612.754 135.295 629.364 147.797 629.364 159.549Z" fill="#8F2C9A"/>
<path d="M589.55 154.7C591.667 154.7 593.382 153.439 593.382 151.883C593.382 150.328 591.667 149.066 589.55 149.066C587.434 149.066 585.718 150.328 585.718 151.883C585.718 153.439 587.434 154.7 589.55 154.7Z" fill="#F9F5DF"/>
<path d="M601.046 150.005C603.162 150.005 604.878 148.744 604.878 147.189C604.878 145.633 603.162 144.372 601.046 144.372C598.93 144.372 597.214 145.633 597.214 147.189C597.214 148.744 598.93 150.005 601.046 150.005Z" fill="#F9F5DF"/>
<path d="M612.541 154.7C614.657 154.7 616.373 153.439 616.373 151.883C616.373 150.328 614.657 149.066 612.541 149.066C610.425 149.066 608.709 150.328 608.709 151.883C608.709 153.439 610.425 154.7 612.541 154.7Z" fill="#F9F5DF"/>
<path d="M612.541 164.4C614.657 164.4 616.373 163.138 616.373 161.583C616.373 160.027 614.657 158.766 612.541 158.766C610.425 158.766 608.709 160.027 608.709 161.583C608.709 163.138 610.425 164.4 612.541 164.4Z" fill="#F9F5DF"/>
<path d="M601.046 169.094C603.162 169.094 604.878 167.833 604.878 166.278C604.878 164.722 603.162 163.461 601.046 163.461C598.93 163.461 597.214 164.722 597.214 166.278C597.214 167.833 598.93 169.094 601.046 169.094Z" fill="#F9F5DF"/>
<path d="M589.55 164.4C591.667 164.4 593.382 163.138 593.382 161.583C593.382 160.027 591.667 158.766 589.55 158.766C587.434 158.766 585.718 160.027 585.718 161.583C585.718 163.138 587.434 164.4 589.55 164.4Z" fill="#F9F5DF"/>
<path d="M601.046 159.709C603.162 159.709 604.878 158.448 604.878 156.892C604.878 155.337 603.162 154.076 601.046 154.076C598.93 154.076 597.214 155.337 597.214 156.892C597.214 158.448 598.93 159.709 601.046 159.709Z" fill="#F9F5DF"/>
<path d="M440.367 3.06348H439.894L439.616 3.41896L401.696 52.1258L400.661 53.4555L402.434 53.4794L598.706 56.0429L599.643 56.0549V55.1884V3.91798V3.06348H598.718H440.367Z" fill="#500D74" stroke="black" stroke-width="0.225225"/>
<mask id="mask0" mask-type="alpha" maskUnits="userSpaceOnUse" x="364" y="51" width="179" height="261">
<path d="M542.05 51.7705H364.567V311.54H542.05V51.7705Z" fill="white"/>
<path fill-rule="evenodd" clip-rule="evenodd" d="M488.909 55.3318L401.149 55.1899L368.267 309.044L457.76 283.954L472.612 174.947H539.253V140.567H477.296L488.909 55.3318Z" fill="black"/>
</mask>
<g mask="url(#mask0)">
<path fill-rule="evenodd" clip-rule="evenodd" d="M488.909 55.3318L401.149 55.1899L368.267 309.044L457.76 283.954L472.612 174.947H539.253V140.567H477.296L488.909 55.3318Z" fill="#831290"/>
<path d="M401.149 55.1875L401.153 53.4785L399.509 53.4751L399.313 54.9841L401.149 55.1875ZM488.908 55.3294L490.742 55.543L491.005 53.6238L488.912 53.6204L488.908 55.3294ZM368.267 309.042L366.431 308.839L366.094 311.436L368.803 310.677L368.267 309.042ZM457.76 283.952L458.296 285.586L459.444 285.264L459.594 284.164L457.76 283.952ZM472.611 174.945V173.236H470.981L470.778 174.731L472.611 174.945ZM539.253 174.945V176.654H541.101V174.945H539.253ZM539.253 140.564H541.101V138.855H539.253V140.564ZM477.296 140.564L475.462 140.351L475.2 142.273H477.296V140.564ZM401.145 56.8966L488.907 57.0384L488.912 53.6204L401.153 53.4785L401.145 56.8966ZM370.102 309.245L402.985 55.391L399.313 54.9841L366.431 308.839L370.102 309.245ZM457.224 282.316L367.73 307.406L368.803 310.677L458.296 285.586L457.224 282.316ZM470.778 174.731L455.926 283.738L459.594 284.164L474.445 175.158L470.778 174.731ZM539.253 173.236H472.611V176.654H539.253V173.236ZM537.404 140.564V174.945H541.101V140.564H537.404ZM477.296 142.273H539.253V138.855H477.296V142.273ZM487.074 55.1158L475.462 140.351L479.13 140.778L490.742 55.543L487.074 55.1158Z" fill="black"/>
</g>
<path d="M149.879 318.085V0.5C147.941 4.70074 133.809 20.4954 92.7642 50.0698C51.7195 79.6442 24.0341 114.484 15.3226 128.206C4.02843 146.971 -11.7823 197.101 15.3226 247.512C42.4276 297.921 116.32 315.564 149.879 318.085Z" fill="#500D74"/>
<path d="M149.433 318.085V0.5C149.433 0.5 165.501 20.4954 206.546 50.0698C247.59 79.6442 275.276 114.484 283.987 128.206C295.281 146.971 311.092 197.101 283.987 247.512C256.882 297.921 182.99 315.564 149.433 318.085Z" fill="#500D74"/>
<path d="M149.195 297.483V19.3403C147.5 23.0198 135.122 36.8526 99.1765 62.7543C63.2289 88.6561 38.9822 119.167 31.3523 131.186C21.4613 147.62 7.61396 191.523 31.3523 235.674C55.0906 279.822 119.805 295.275 149.195 297.483Z" fill="#F9F5D2"/>
<path d="M148.805 297.483V19.3403C148.805 19.3403 162.879 36.8526 198.825 62.7543C234.773 88.6561 259.019 119.167 266.649 131.186C276.54 147.62 290.388 191.525 266.649 235.674C242.911 279.822 178.197 295.275 148.805 297.483Z" fill="#F9F5D2"/>
<path d="M261.575 187.845C261.575 243.112 211.85 279.822 150.513 279.822C89.1745 279.822 39.4517 243.112 39.4517 187.845C39.4517 132.575 93.6985 75.9988 150.513 59.811C195.435 73.7907 261.575 132.575 261.575 187.845Z" fill="#831290"/>
<path d="M103.025 165.034C111.454 165.034 118.286 159.104 118.286 151.789C118.286 144.474 111.454 138.544 103.025 138.544C94.5974 138.544 87.7651 144.474 87.7651 151.789C87.7651 159.104 94.5974 165.034 103.025 165.034Z" fill="#FBF5D8"/>
<path d="M148.806 142.959C157.234 142.959 164.066 137.029 164.066 129.714C164.066 122.399 157.234 116.469 148.806 116.469C140.378 116.469 133.545 122.399 133.545 129.714C133.545 137.029 140.378 142.959 148.806 142.959Z" fill="#FBF5D8"/>
<path d="M194.586 165.034C203.014 165.034 209.846 159.104 209.846 151.789C209.846 144.474 203.014 138.544 194.586 138.544C186.158 138.544 179.326 144.474 179.326 151.789C179.326 159.104 186.158 165.034 194.586 165.034Z" fill="#FBF5D8"/>
<path d="M194.586 210.654C203.014 210.654 209.846 204.724 209.846 197.409C209.846 190.094 203.014 184.165 194.586 184.165C186.158 184.165 179.326 190.094 179.326 197.409C179.326 204.724 186.158 210.654 194.586 210.654Z" fill="#FBF5D8"/>
<path d="M148.806 232.729C157.234 232.729 164.066 226.799 164.066 219.484C164.066 212.169 157.234 206.239 148.806 206.239C140.378 206.239 133.545 212.169 133.545 219.484C133.545 226.799 140.378 232.729 148.806 232.729Z" fill="#FBF5D8"/>
<path d="M103.025 210.654C111.454 210.654 118.286 204.724 118.286 197.409C118.286 190.094 111.454 184.165 103.025 184.165C94.5974 184.165 87.7651 190.094 87.7651 197.409C87.7651 204.724 94.5974 210.654 103.025 210.654Z" fill="#FBF5D8"/>
<path d="M148.806 188.579C157.234 188.579 164.066 182.649 164.066 175.335C164.066 168.02 157.234 162.09 148.806 162.09C140.378 162.09 133.545 168.02 133.545 175.335C133.545 182.649 140.378 188.579 148.806 188.579Z" fill="#FBF5D8"/>
</svg>
