<?xml version="1.0" encoding="UTF-8" standalone="no"?>
<svg
   width="184"
   height="85"
   viewBox="0 0 550.16 254.15"
   fill="none"
   version="1.1"
   id="svg433"
   sodipodi:docname="FICHIBLOG.svg"
   shape-rendering="crispEdges"
   inkscape:version="1.1 (c68e22c387, 2021-05-23)"
   xmlns:inkscape="http://www.inkscape.org/namespaces/inkscape"
   xmlns:sodipodi="http://sodipodi.sourceforge.net/DTD/sodipodi-0.dtd"
   xmlns="http://www.w3.org/2000/svg"
   xmlns:svg="http://www.w3.org/2000/svg">
  <defs
     id="defs437" />
  <sodipodi:namedview
     id="namedview435"
     pagecolor="#ffffff"
     bordercolor="#666666"
     borderopacity="1.0"
     inkscape:pageshadow="2"
     inkscape:pageopacity="0.0"
     inkscape:pagecheckerboard="false"
     showgrid="false"
     width="199px"
     scale-x="2.99"
     units="px"
     inkscape:showpageshadow="false"
     inkscape:zoom="1.066875"
     inkscape:cx="145.28412"
     inkscape:cy="-17.340363"
     inkscape:window-width="1920"
     inkscape:window-height="1017"
     inkscape:window-x="-8"
     inkscape:window-y="-8"
     inkscape:window-maximized="1"
     inkscape:current-layer="svg433" />
  <path
     d="m 463.46106,196.03747 h 5.55 v 22.29 h -5.55 z m 9.87,22.5 c -0.66,0 -1.24,-0.06 -1.74,-0.18 -0.48,-0.12 -0.92,-0.33 -1.32,-0.63 v -3.81 h 0.33 c 0.44,0 0.75,-0.02 0.93,-0.06 0.2,-0.06 0.35,-0.18 0.45,-0.36 0.1,-0.22 0.16,-0.54 0.18,-0.96 0.02,-0.3 0.03,-0.92 0.03,-1.86 0,-0.94 -0.01,-1.56 -0.03,-1.86 -0.02,-0.44 -0.08,-0.76 -0.18,-0.96 -0.08,-0.2 -0.23,-0.32 -0.45,-0.36 -0.28,-0.04 -0.59,-0.06 -0.93,-0.06 h -0.33 v -3.81 c 0.4,-0.32 0.83,-0.53 1.29,-0.63 0.46,-0.12 1.05,-0.18 1.77,-0.18 1.6,0 2.75,0.58 3.45,1.74 0.7,1.2 1.05,3.26 1.05,6.18 0,2.94 -0.35,4.99 -1.05,6.15 -0.36,0.58 -0.83,1 -1.41,1.26 -0.56,0.26 -1.24,0.39 -2.04,0.39 z m 10.474,-22.5 h 5.55 v 22.29 h -5.55 z m 20.515,14.67 c 0,-1.02 -0.01,-1.7 -0.03,-2.04 -0.02,-0.48 -0.08,-0.84 -0.18,-1.08 -0.1,-0.26 -0.26,-0.42 -0.48,-0.48 -0.24,-0.06 -0.57,-0.09 -0.99,-0.09 h -0.42 v -4.23 h 0.42 c 1.74,0 3.1,0.14 4.08,0.42 0.98,0.26 1.71,0.7 2.19,1.32 0.44,0.56 0.72,1.31 0.84,2.25 0.14,0.92 0.21,2.23 0.21,3.93 0,1.58 -0.05,2.81 -0.15,3.69 -0.08,0.86 -0.29,1.57 -0.63,2.13 -0.38,0.62 -0.95,1.09 -1.71,1.41 -0.76,0.3 -1.81,0.49 -3.15,0.57 z m -1.68,7.86 c -1.74,0 -3.1,-0.13 -4.08,-0.39 -0.98,-0.26 -1.71,-0.7 -2.19,-1.32 -0.44,-0.56 -0.73,-1.3 -0.87,-2.22 -0.12,-0.92 -0.18,-2.23 -0.18,-3.93 0,-1.56 0.05,-2.78 0.15,-3.66 0.1,-0.88 0.32,-1.61 0.66,-2.19 0.36,-0.64 0.92,-1.11 1.68,-1.41 0.76,-0.32 1.81,-0.52 3.15,-0.6 v 7.86 c 0,1.02 0.01,1.69 0.03,2.01 0.02,0.48 0.08,0.84 0.18,1.08 0.1,0.24 0.27,0.39 0.51,0.45 0.2,0.06 0.52,0.09 0.96,0.09 h 0.42 v 4.23 z m 17.348,-0.33 c -0.8,0 -1.48,-0.13 -2.04,-0.39 -0.56,-0.28 -1.02,-0.72 -1.38,-1.32 -0.72,-1.16 -1.08,-3.18 -1.08,-6.06 0,-2.9 0.36,-4.91 1.08,-6.03 0.36,-0.56 0.82,-0.97 1.38,-1.23 0.56,-0.26 1.24,-0.39 2.04,-0.39 0.68,0 1.26,0.06 1.74,0.18 0.48,0.12 0.92,0.34 1.32,0.66 v 3.78 h -0.33 c -0.44,0 -0.76,0.03 -0.96,0.09 -0.18,0.04 -0.32,0.14 -0.42,0.3 -0.1,0.22 -0.16,0.53 -0.18,0.93 -0.02,0.28 -0.03,0.87 -0.03,1.77 0,0.9 0.01,1.49 0.03,1.77 0.02,0.42 0.08,0.73 0.18,0.93 0.1,0.18 0.26,0.29 0.48,0.33 0.28,0.04 0.58,0.06 0.9,0.06 h 0.33 v 3.81 c -0.4,0.32 -0.83,0.54 -1.29,0.66 -0.46,0.1 -1.05,0.15 -1.77,0.15 z m 2.01,6.27 c -1,0 -2.2,-0.06 -3.6,-0.18 l -1.8,-0.18 v -3.87 h 4.02 c 0.72,0 1.42,-0.02 2.1,-0.06 0.5,-0.04 0.86,-0.14 1.08,-0.3 0.24,-0.14 0.39,-0.39 0.45,-0.75 0.04,-0.48 0.06,-0.99 0.06,-1.53 v -14.61 h 5.55 v 13.62 c 0,1.56 -0.07,2.78 -0.21,3.66 -0.14,0.9 -0.44,1.65 -0.9,2.25 -0.52,0.66 -1.32,1.15 -2.4,1.47 -1.06,0.32 -2.51,0.48 -4.35,0.48 z"
     fill="#500d74"
     id="path320" />
  <path
     d="m 287.63906,85.737474 h 24.05 v 18.719996 h -24.05 z m 0,30.289996 h 24.05 v 66.3 h -24.05 z m 94.878,17.81 c -2.167,-0.347 -5.287,-0.52 -9.36,-0.52 -2.687,0 -4.594,0.173 -5.72,0.52 v -18.85 c 6.153,0.087 12.523,0.867 19.11,2.34 v 16.9 z m -15.99,49.53 c -6.76,0 -12.134,-0.823 -16.12,-2.47 -3.987,-1.647 -6.934,-4.073 -8.84,-7.28 -1.734,-2.773 -2.86,-6.023 -3.38,-9.75 -0.434,-3.727 -0.65,-8.58 -0.65,-14.56 0,-5.46 0.216,-10.01 0.65,-13.65 0.433,-3.64 1.343,-6.847 2.73,-9.62 1.646,-3.207 4.116,-5.677 7.41,-7.41 3.38,-1.82 7.93,-2.947 13.65,-3.38 v 33.93 c 0,3.813 0.086,6.673 0.26,8.58 0.26,1.907 0.736,3.38 1.43,4.42 0.78,1.04 1.863,1.777 3.25,2.21 1.473,0.433 3.553,0.65 6.24,0.65 4.593,0 7.756,-0.13 9.49,-0.39 l 4.42,-0.52 v 16.9 c -6.414,1.56 -13.26,2.34 -20.54,2.34 z m 46.389,-97.629996 h 24.05 v 96.589996 h -24.05 z m 37.57,65.259996 c 0,-4.593 -0.043,-7.627 -0.13,-9.1 -0.173,-2.427 -0.39,-4.03 -0.65,-4.81 -0.346,-0.867 -0.953,-1.387 -1.82,-1.56 -0.866,-0.26 -2.253,-0.39 -4.16,-0.39 h -1.3 v -15.86 c 3.467,-2.773 7.887,-4.16 13.26,-4.16 7.8,0 13.044,2.383 15.73,7.15 1.214,2.08 2.037,4.637 2.47,7.67 0.434,2.947 0.65,6.587 0.65,10.92 v 41.47 h -24.05 z m 51.856,-65.259996 h 24.05 v 18.719996 h -24.05 z m 0,30.289996 h 24.05 v 66.3 h -24.05 z"
     fill="#831290"
     id="path322" />
  <path
     d="m 287.63906,85.737474 v -1 h -1 v 1 z m 24.05,0 h 1 v -1 h -1 z m 0,18.719996 v 1 h 1 v -1 z m -24.05,0 h -1 v 1 h 1 z m 0,11.57 v -1 h -1 v 1 z m 24.05,0 h 1 v -1 h -1 z m 0,66.3 v 1 h 1 v -1 z m -24.05,0 h -1 v 1 h 1 z m 0,-95.589996 h 24.05 v -2 h -24.05 z m 23.05,-1 v 18.719996 h 2 V 85.737474 Z m 1,17.719996 h -24.05 v 2 h 24.05 z m -23.05,1 V 85.737474 h -2 v 18.719996 z m -1,12.57 h 24.05 v -2 h -24.05 z m 23.05,-1 v 66.3 h 2 v -66.3 z m 1,65.3 h -24.05 v 2 h 24.05 z m -23.05,1 v -66.3 h -2 v 66.3 z m 93.878,-48.49 -0.158,0.987 0.03,0.005 0.031,0.003 z m -15.08,0 h -1 v 1.354 l 1.294,-0.398 z m 0,-18.85 0.014,-1 -1.014,-0.014 v 1.014 z m 19.11,2.34 h 1 v -0.801 l -0.782,-0.175 z m 0,16.9 -0.097,0.995 1.097,0.106 v -1.101 z m -36.14,46.67 -0.382,0.924 z m -8.84,-7.28 0.859,-0.511 -0.005,-0.01 -0.006,-0.009 z m -3.38,-9.75 -0.994,0.116 0.002,0.011 10e-4,0.011 z m 0,-28.21 -0.993,-0.118 z m 2.73,-9.62 -0.89,-0.457 -0.005,0.01 z m 7.41,-7.41 0.465,0.885 0.009,-0.005 z m 13.65,-3.38 h 1 v -1.079 l -1.076,0.082 z m 0.26,42.51 -0.996,0.091 0.002,0.022 0.003,0.022 z m 1.43,4.42 -0.832,0.555 0.015,0.023 0.017,0.022 z m 3.25,2.21 -0.299,0.954 0.008,0.003 0.008,0.002 z m 15.73,0.26 -0.117,-0.993 -0.016,0.002 -0.016,0.002 z m 4.42,-0.52 h 1 v -1.125 l -1.117,0.132 z m 0,16.9 0.236,0.972 0.764,-0.186 v -0.786 z m -4.392,-48.177 c -2.246,-0.36 -5.429,-0.533 -9.518,-0.533 v 2 c 4.057,0 7.114,0.173 9.202,0.507 z m -9.518,-0.533 c -2.692,0 -4.732,0.17 -6.014,0.564 l 0.588,1.912 c 0.97,-0.299 2.744,-0.476 5.426,-0.476 z m -4.72,1.52 v -18.85 h -2 v 18.85 z m -1.014,-17.85 c 6.078,0.086 12.379,0.856 18.905,2.316 l 0.437,-1.952 c -6.647,-1.487 -13.086,-2.276 -19.314,-2.364 z m 18.124,1.34 v 16.9 h 2 v -16.9 z m 1.096,15.905 -4.03,-0.39 -0.193,1.99 4.03,0.39 z m -20.116,49.135 c -6.695,0 -11.922,-0.818 -15.739,-2.394 l -0.763,1.848 c 4.157,1.717 9.677,2.546 16.502,2.546 z m -15.739,-2.394 c -3.819,-1.578 -6.582,-3.874 -8.362,-6.867 l -1.719,1.022 c 2.034,3.421 5.164,5.978 9.318,7.693 z m -8.373,-6.886 c -1.649,-2.638 -2.734,-5.75 -3.238,-9.358 l -1.981,0.276 c 0.537,3.845 1.704,7.233 3.523,10.142 z m -3.235,-9.336 c -0.427,-3.672 -0.643,-8.483 -0.643,-14.444 h -2 c 0,5.999 0.217,10.895 0.656,14.676 z m -0.643,-14.444 c 0,-5.438 0.216,-9.945 0.643,-13.532 l -1.986,-0.236 c -0.44,3.693 -0.657,8.286 -0.657,13.768 z m 0.643,-13.532 c 0.422,-3.546 1.304,-6.638 2.631,-9.291 l -1.789,-0.894 c -1.446,2.893 -2.384,6.215 -2.828,9.949 z m 2.626,-9.281 c 1.55,-3.018 3.869,-5.341 6.986,-6.982 l -0.931,-1.77 c -3.469,1.826 -6.09,4.442 -7.834,7.838 z m 6.995,-6.987 c 3.211,-1.729 7.608,-2.835 13.251,-3.263 l -0.151,-1.994 c -5.797,0.439 -10.5,1.586 -14.048,3.497 z m 12.176,-4.26 v 33.93 h 2 v -33.93 z m 0,33.93 c 0,3.82 0.086,6.717 0.264,8.671 l 1.992,-0.182 c -0.17,-1.859 -0.256,-4.682 -0.256,-8.489 z m 0.269,8.715 c 0.27,1.984 0.778,3.624 1.589,4.84 l 1.664,-1.11 c -0.576,-0.864 -1.022,-2.17 -1.272,-4 z m 1.621,4.885 c 0.92,1.227 2.189,2.076 3.751,2.564 l 0.597,-1.908 c -1.211,-0.379 -2.109,-1.003 -2.748,-1.856 z m 3.767,2.569 c 1.609,0.474 3.801,0.691 6.523,0.691 v -2 c -2.652,0 -4.62,-0.216 -5.958,-0.609 z m 6.523,0.691 c 4.588,0 7.821,-0.129 9.638,-0.401 l -0.297,-1.978 c -1.65,0.248 -4.743,0.379 -9.341,0.379 z m 9.607,-0.397 4.419,-0.52 -0.233,-1.986 -4.42,0.52 z m 3.303,-1.513 v 16.9 h 2 v -16.9 z m 0.763,15.928 c -6.328,1.54 -13.095,2.312 -20.303,2.312 v 2 c 7.351,0 14.278,-0.788 20.776,-2.368 z m 26.086,-94.317996 v -1 h -1 v 1 z m 24.05,0 h 1 v -1 h -1 z m 0,96.589996 v 1 h 1 v -1 z m -24.05,0 h -1 v 1 h 1 z m 37.44,-40.43 0.999,-0.059 -10e-4,-0.012 z m -0.65,-4.81 0.949,-0.316 -0.009,-0.028 -0.011,-0.027 z m -1.82,-1.56 -0.287,0.958 0.045,0.013 0.046,0.01 z m -5.46,-0.39 h -1 v 1 h 1 z m 0,-15.86 -0.624,-0.781 -0.376,0.3 v 0.481 z m 28.99,2.99 -0.871,0.491 0.004,0.006 0.004,0.007 z m 2.47,7.67 -0.99,0.141 0.001,0.004 z m 0.65,52.39 v 1 h 1 v -1 z m -24.05,0 h -1 v 1 h 1 z m -37.57,-95.589996 h 24.05 v -2 h -24.05 z m 23.05,-1 v 96.589996 h 2 V 85.737474 Z m 1,95.589996 h -24.05 v 2 h 24.05 z m -23.05,1 V 85.737474 h -2 v 96.589996 z m 37.57,-31.33 c 0,-4.588 -0.043,-7.651 -0.131,-9.159 l -1.997,0.118 c 0.085,1.439 0.128,4.442 0.128,9.041 z m -0.132,-9.171 c -0.172,-2.406 -0.393,-4.136 -0.699,-5.055 l -1.897,0.632 c 0.213,0.641 0.426,2.118 0.601,4.565 z m -0.719,-5.11 c -0.464,-1.16 -1.333,-1.926 -2.553,-2.17 l -0.392,1.962 c 0.514,0.102 0.858,0.376 1.088,0.95 z m -2.461,-2.147 c -1.016,-0.304 -2.527,-0.432 -4.448,-0.432 v 2 c 1.893,0 3.155,0.132 3.873,0.348 z m -4.448,-0.432 h -1.3 v 2 h 1.3 z m -0.3,1 v -15.86 h -2 v 15.86 z m -0.375,-15.079 c 3.254,-2.604 7.44,-3.941 12.635,-3.941 v -2 c -5.551,0 -10.205,1.436 -13.884,4.379 z m 12.635,-3.941 c 7.611,0 12.42,2.314 14.859,6.641 l 1.742,-0.982 c -2.934,-5.206 -8.611,-7.659 -16.601,-7.659 z m 14.867,6.654 c 1.133,1.942 1.924,4.369 2.343,7.307 l 1.98,-0.282 c -0.447,-3.128 -1.302,-5.815 -2.596,-8.033 z m 2.344,7.311 c 0.424,2.883 0.639,6.471 0.639,10.775 h 2 c 0,-4.362 -0.217,-8.054 -0.66,-11.065 z m 0.639,10.775 v 41.47 h 2 v -41.47 z m 1,40.47 h -24.05 v 2 h 24.05 z m -23.05,1 v -31.33 h -2 v 31.33 z m 50.856,-96.589996 v -1 h -1 v 1 z m 24.05,0 h 1 v -1 h -1 z m 0,18.719996 v 1 h 1 v -1 z m -24.05,0 h -1 v 1 h 1 z m 0,11.57 v -1 h -1 v 1 z m 24.05,0 h 1 v -1 h -1 z m 0,66.3 v 1 h 1 v -1 z m -24.05,0 h -1 v 1 h 1 z m 0,-95.589996 h 24.05 v -2 h -24.05 z m 23.05,-1 v 18.719996 h 2 V 85.737474 Z m 1,17.719996 h -24.05 v 2 h 24.05 z m -23.05,1 V 85.737474 h -2 v 18.719996 z m -1,12.57 h 24.05 v -2 h -24.05 z m 23.05,-1 v 66.3 h 2 v -66.3 z m 1,65.3 h -24.05 v 2 h 24.05 z m -23.05,1 v -66.3 h -2 v 66.3 z"
     fill="#000000"
     id="path324" />
  <g
     fill="#622782"
     id="g330"
     transform="translate(-278.77094,-552.67253)">
    <path
       d="M 791.056,664.027 V 625 c -0.26,0.516 -2.155,2.457 -7.661,6.091 -5.505,3.635 -9.219,7.916 -10.388,9.602 -1.514,2.306 -3.635,8.466 0,14.661 3.636,6.195 13.548,8.363 18.049,8.673 z"
       id="path326" />
    <path
       d="M 790.996,664.027 V 625 c 0,0 2.156,2.457 7.661,6.091 5.506,3.635 9.219,7.916 10.388,9.602 1.515,2.306 3.636,8.466 0,14.661 -3.636,6.195 -13.547,8.363 -18.049,8.673 z"
       id="path328" />
  </g>
  <g
     fill="#f9f5df"
     id="g336"
     transform="translate(-278.77094,-552.67253)">
    <path
       d="m 790.964,661.709 v -34.61 c -0.23,0.458 -1.911,2.179 -6.794,5.402 -4.882,3.223 -8.176,7.019 -9.212,8.515 -1.343,2.045 -3.224,7.508 0,13.002 3.224,5.493 12.014,7.416 16.006,7.691 z"
       id="path332" />
    <path
       d="m 790.911,661.709 v -34.61 c 0,0 1.912,2.179 6.794,5.402 4.882,3.223 8.176,7.019 9.212,8.515 1.344,2.045 3.224,7.508 0,13.002 -3.224,5.493 -12.014,7.416 -16.006,7.691 z"
       id="path334" />
  </g>
  <path
     d="m 527.45706,95.393474 c 0,6.876996 -6.754,11.444996 -15.085,11.444996 -8.331,0 -15.085,-4.568 -15.085,-11.444996 0,-6.877 7.368,-13.917 15.085,-15.931 6.101,1.739 15.085,9.054 15.085,15.931 z"
     fill="#8f2c9a"
     id="path338" />
  <g
     fill="#f9f5df"
     id="g354"
     transform="translate(-278.77094,-552.67253)">
    <ellipse
       cx="784.69299"
       cy="643.58002"
       rx="2.0727"
       ry="1.6481"
       id="ellipse340" />
    <ellipse
       cx="790.91101"
       cy="640.83301"
       rx="2.0727"
       ry="1.6481"
       id="ellipse342" />
    <ellipse
       cx="797.12903"
       cy="643.58002"
       rx="2.0727"
       ry="1.6481"
       id="ellipse344" />
    <ellipse
       cx="797.12903"
       cy="649.25598"
       rx="2.0727"
       ry="1.6481"
       id="ellipse346" />
    <ellipse
       cx="790.91101"
       cy="652.00299"
       rx="2.0727"
       ry="1.6481"
       id="ellipse348" />
    <ellipse
       cx="784.69299"
       cy="649.25598"
       rx="2.0727"
       ry="1.6481"
       id="ellipse350" />
    <ellipse
       cx="790.91101"
       cy="646.51001"
       rx="2.0727"
       ry="1.6481"
       id="ellipse352" />
  </g>
  <g
     id="g386"
     transform="translate(-278.77094,-552.67253)">
    <g
       fill="#622782"
       id="g360">
      <path
         d="M 579.056,664.027 V 625 c -0.26,0.516 -2.155,2.457 -7.661,6.091 -5.505,3.635 -9.219,7.916 -10.388,9.602 -1.514,2.306 -3.635,8.466 0,14.661 3.636,6.195 13.548,8.363 18.049,8.673 z"
         id="path356" />
      <path
         d="M 578.996,664.027 V 625 c 0,0 2.156,2.457 7.661,6.091 5.506,3.635 9.219,7.916 10.388,9.602 1.515,2.306 3.636,8.466 0,14.661 -3.636,6.195 -13.547,8.363 -18.049,8.673 z"
         id="path358" />
    </g>
    <g
       fill="#f9f5df"
       id="g366">
      <path
         d="m 578.964,661.709 v -34.61 c -0.23,0.458 -1.911,2.179 -6.794,5.402 -4.882,3.223 -8.176,7.019 -9.212,8.515 -1.343,2.045 -3.224,7.508 0,13.002 3.224,5.493 12.014,7.416 16.006,7.691 z"
         id="path362" />
      <path
         d="m 578.911,661.709 v -34.61 c 0,0 1.912,2.179 6.794,5.402 4.882,3.223 8.176,7.019 9.212,8.515 1.344,2.045 3.224,7.508 0,13.002 -3.224,5.493 -12.014,7.416 -16.006,7.691 z"
         id="path364" />
    </g>
    <path
       d="m 594.228,648.066 c 0,6.877 -6.754,11.445 -15.085,11.445 -8.331,0 -15.085,-4.568 -15.085,-11.445 0,-6.877 7.368,-13.917 15.085,-15.931 6.101,1.739 15.085,9.054 15.085,15.931 z"
       fill="#8f2c9a"
       id="path368" />
    <g
       fill="#f9f5df"
       id="g384">
      <ellipse
         cx="572.69299"
         cy="643.58002"
         rx="2.0727"
         ry="1.6481"
         id="ellipse370" />
      <ellipse
         cx="578.91101"
         cy="640.83301"
         rx="2.0727"
         ry="1.6481"
         id="ellipse372" />
      <ellipse
         cx="585.12903"
         cy="643.58002"
         rx="2.0727"
         ry="1.6481"
         id="ellipse374" />
      <ellipse
         cx="585.12903"
         cy="649.25598"
         rx="2.0727"
         ry="1.6481"
         id="ellipse376" />
      <ellipse
         cx="578.91101"
         cy="652.00299"
         rx="2.0727"
         ry="1.6481"
         id="ellipse378" />
      <ellipse
         cx="572.69299"
         cy="649.25598"
         rx="2.0727"
         ry="1.6481"
         id="ellipse380" />
      <ellipse
         cx="578.91101"
         cy="646.51001"
         rx="2.0727"
         ry="1.6481"
         id="ellipse382" />
    </g>
  </g>
  <g
     id="g399"
     transform="translate(-278.77094,-552.67253)">
    <path
       d="m 492,556.5 h -0.256 l -0.15,0.208 -20.511,28.5 -0.56,0.778 0.959,0.014 106.163,1.5 0.507,0.007 V 556.5 Z"
       fill="#500d74"
       stroke="#000000"
       id="path388" />
    <mask
       id="a"
       maskUnits="userSpaceOnUse"
       x="451"
       y="585"
       width="96"
       height="152"
       fill="#000000">
      <path
         fill="#ffffff"
         d="m 451,585 h 96 v 152 h -96 z"
         id="path390" />
      <path
         fill-rule="evenodd"
         clip-rule="evenodd"
         d="M 518.255,587.083 470.786,587 453,735.539 l 48.407,-14.681 8.033,-63.784 h 36.046 v -20.117 h -33.512 z"
         id="path392" />
    </mask>
    <path
       fill-rule="evenodd"
       clip-rule="evenodd"
       d="M 518.255,587.083 470.786,587 453,735.539 l 48.407,-14.681 8.033,-63.784 h 36.046 v -20.117 h -33.512 z"
       fill="#831290"
       id="path395" />
    <path
       d="m 470.786,587 0.002,-1 -0.889,-0.002 -0.106,0.883 z m 47.469,0.083 0.992,0.125 0.142,-1.123 -1.132,-0.002 z M 453,735.539 l -0.993,-0.119 -0.182,1.52 1.465,-0.444 z m 48.407,-14.681 0.29,0.956 0.621,-0.188 0.081,-0.644 z m 8.033,-63.784 v -1 h -0.882 l -0.11,0.875 z m 36.046,0 v 1 h 1 v -1 z m 0,-20.117 h 1 v -1 h -1 z m -33.512,0 -0.992,-0.125 -0.142,1.125 h 1.134 z M 470.784,588 l 47.47,0.083 0.003,-2 L 470.788,586 Z m -16.791,147.658 17.786,-148.539 -1.986,-0.238 -17.786,148.539 z m 47.124,-15.757 -48.407,14.681 0.58,1.914 48.407,-14.682 z m 7.331,-62.952 -8.033,63.784 1.984,0.249 8.033,-63.783 z m 37.038,-0.875 H 509.44 v 2 h 36.046 z m -1,-19.117 v 20.117 h 2 v -20.117 z m -32.512,1 h 33.512 v -2 h -33.512 z m 5.289,-50.999 -6.281,49.874 1.984,0.25 6.281,-49.874 z"
       fill="#000000"
       mask="url(#a)"
       id="path397" />
  </g>
  <g
     id="g431"
     transform="translate(-251.98945,-553.88987)">
    <g
       fill="#500d74"
       id="g405">
      <path
         d="M 334.876,740.83 V 555 c -1.048,2.458 -8.692,11.7 -30.893,29.005 -22.201,17.305 -37.176,37.691 -41.888,45.72 -6.109,10.98 -14.661,40.313 0,69.81 14.661,29.496 54.629,39.82 72.781,41.295 z"
         id="path401" />
      <path
         d="M 334.635,740.83 V 555 c 0,0 8.691,11.7 30.892,29.005 22.201,17.305 37.176,37.691 41.888,45.72 6.109,10.98 14.661,40.313 0,69.81 -14.661,29.496 -54.629,39.82 -72.78,41.295 z"
         id="path403" />
    </g>
    <g
       fill="#f9f5d2"
       id="g411">
      <path
         d="M 334.507,728.775 V 566.024 c -0.917,2.153 -7.612,10.247 -27.055,25.403 -19.444,15.156 -32.559,33.009 -36.686,40.042 -5.35,9.616 -12.84,35.305 0,61.139 12.84,25.833 47.844,34.875 63.741,36.167 z"
         id="path407" />
      <path
         d="M 334.296,728.775 V 566.024 c 0,0 7.613,10.247 27.056,25.403 19.444,15.156 32.559,33.009 36.686,40.042 5.35,9.616 12.84,35.306 0,61.139 -12.84,25.833 -47.844,34.875 -63.742,36.167 z"
         id="path409" />
    </g>
    <path
       d="m 395.293,664.622 c 0,32.339 -26.896,53.819 -60.073,53.819 -33.178,0 -60.073,-21.48 -60.073,-53.819 0,-32.34 29.342,-65.445 60.073,-74.917 24.298,8.18 60.073,42.577 60.073,74.917 z"
       fill="#831290"
       id="path413" />
    <g
       fill="#fbf5d8"
       id="g429">
      <ellipse
         cx="309.534"
         cy="643.52399"
         rx="8.2543001"
         ry="7.75"
         id="ellipse415" />
      <ellipse
         cx="334.29599"
         cy="630.60797"
         rx="8.2543001"
         ry="7.75"
         id="ellipse417" />
      <ellipse
         cx="359.05899"
         cy="643.52399"
         rx="8.2543001"
         ry="7.75"
         id="ellipse419" />
      <ellipse
         cx="359.05899"
         cy="670.21899"
         rx="8.2543001"
         ry="7.75"
         id="ellipse421" />
      <ellipse
         cx="334.29599"
         cy="683.13501"
         rx="8.2543001"
         ry="7.75"
         id="ellipse423" />
      <ellipse
         cx="309.534"
         cy="670.21899"
         rx="8.2543001"
         ry="7.75"
         id="ellipse425" />
      <ellipse
         cx="334.29599"
         cy="657.302"
         rx="8.2543001"
         ry="7.75"
         id="ellipse427" />
    </g>
  </g>
</svg>
