<svg width="400" height="75" viewBox="0 0 1498 1110" fill="none" xmlns="http://www.w3.org/2000/svg">
<rect width="1498" height="1110" fill="#E5E5E5"/>
<path d="M742.232 748.71H747.782V771H742.232V748.71ZM752.102 771.21C751.442 771.21 750.862 771.15 750.362 771.03C749.882 770.91 749.442 770.7 749.042 770.4V766.59H749.372C749.812 766.59 750.122 766.57 750.302 766.53C750.502 766.47 750.652 766.35 750.752 766.17C750.852 765.95 750.912 765.63 750.932 765.21C750.952 764.91 750.962 764.29 750.962 763.35C750.962 762.41 750.952 761.79 750.932 761.49C750.912 761.05 750.852 760.73 750.752 760.53C750.672 760.33 750.522 760.21 750.302 760.17C750.022 760.13 749.712 760.11 749.372 760.11H749.042V756.3C749.442 755.98 749.872 755.77 750.332 755.67C750.792 755.55 751.382 755.49 752.102 755.49C753.702 755.49 754.852 756.07 755.552 757.23C756.252 758.43 756.602 760.49 756.602 763.41C756.602 766.35 756.252 768.4 755.552 769.56C755.192 770.14 754.722 770.56 754.142 770.82C753.582 771.08 752.902 771.21 752.102 771.21ZM762.576 748.71H768.126V771H762.576V748.71ZM783.091 763.38C783.091 762.36 783.081 761.68 783.061 761.34C783.041 760.86 782.981 760.5 782.881 760.26C782.781 760 782.621 759.84 782.401 759.78C782.161 759.72 781.831 759.69 781.411 759.69H780.991V755.46H781.411C783.151 755.46 784.511 755.6 785.491 755.88C786.471 756.14 787.201 756.58 787.681 757.2C788.121 757.76 788.401 758.51 788.521 759.45C788.661 760.37 788.731 761.68 788.731 763.38C788.731 764.96 788.681 766.19 788.581 767.07C788.501 767.93 788.291 768.64 787.951 769.2C787.571 769.82 787.001 770.29 786.241 770.61C785.481 770.91 784.431 771.1 783.091 771.18V763.38ZM781.411 771.24C779.671 771.24 778.311 771.11 777.331 770.85C776.351 770.59 775.621 770.15 775.141 769.53C774.701 768.97 774.411 768.23 774.271 767.31C774.151 766.39 774.091 765.08 774.091 763.38C774.091 761.82 774.141 760.6 774.241 759.72C774.341 758.84 774.561 758.11 774.901 757.53C775.261 756.89 775.821 756.42 776.581 756.12C777.341 755.8 778.391 755.6 779.731 755.52V763.38C779.731 764.4 779.741 765.07 779.761 765.39C779.781 765.87 779.841 766.23 779.941 766.47C780.041 766.71 780.211 766.86 780.451 766.92C780.651 766.98 780.971 767.01 781.411 767.01H781.831V771.24H781.411ZM798.759 770.91C797.959 770.91 797.279 770.78 796.719 770.52C796.159 770.24 795.699 769.8 795.339 769.2C794.619 768.04 794.259 766.02 794.259 763.14C794.259 760.24 794.619 758.23 795.339 757.11C795.699 756.55 796.159 756.14 796.719 755.88C797.279 755.62 797.959 755.49 798.759 755.49C799.439 755.49 800.019 755.55 800.499 755.67C800.979 755.79 801.419 756.01 801.819 756.33V760.11H801.489C801.049 760.11 800.729 760.14 800.529 760.2C800.349 760.24 800.209 760.34 800.109 760.5C800.009 760.72 799.949 761.03 799.929 761.43C799.909 761.71 799.899 762.3 799.899 763.2C799.899 764.1 799.909 764.69 799.929 764.97C799.949 765.39 800.009 765.7 800.109 765.9C800.209 766.08 800.369 766.19 800.589 766.23C800.869 766.27 801.169 766.29 801.489 766.29H801.819V770.1C801.419 770.42 800.989 770.64 800.529 770.76C800.069 770.86 799.479 770.91 798.759 770.91ZM800.769 777.18C799.769 777.18 798.569 777.12 797.169 777L795.369 776.82V772.95H799.389C800.109 772.95 800.809 772.93 801.489 772.89C801.989 772.85 802.349 772.75 802.569 772.59C802.809 772.45 802.959 772.2 803.019 771.84C803.059 771.36 803.079 770.85 803.079 770.31V755.7H808.629V769.32C808.629 770.88 808.559 772.1 808.419 772.98C808.279 773.88 807.979 774.63 807.519 775.23C806.999 775.89 806.199 776.38 805.119 776.7C804.059 777.02 802.609 777.18 800.769 777.18Z" fill="#500D74"/>
<path d="M566.41 638.41H590.46V657.13H566.41V638.41ZM566.41 668.7H590.46V735H566.41V668.7ZM661.288 686.51C659.121 686.163 656.001 685.99 651.928 685.99C649.241 685.99 647.334 686.163 646.208 686.51V667.66C652.361 667.747 658.731 668.527 665.318 670V686.9L661.288 686.51ZM645.298 736.04C638.538 736.04 633.164 735.217 629.178 733.57C625.191 731.923 622.244 729.497 620.338 726.29C618.604 723.517 617.478 720.267 616.958 716.54C616.524 712.813 616.308 707.96 616.308 701.98C616.308 696.52 616.524 691.97 616.958 688.33C617.391 684.69 618.301 681.483 619.688 678.71C621.334 675.503 623.804 673.033 627.098 671.3C630.478 669.48 635.028 668.353 640.748 667.92V701.85C640.748 705.663 640.834 708.523 641.008 710.43C641.268 712.337 641.744 713.81 642.438 714.85C643.218 715.89 644.301 716.627 645.688 717.06C647.161 717.493 649.241 717.71 651.928 717.71C656.521 717.71 659.684 717.58 661.418 717.32L665.838 716.8V733.7C659.424 735.26 652.578 736.04 645.298 736.04ZM691.687 638.41H715.737V735H691.687V638.41ZM729.257 703.67C729.257 699.077 729.214 696.043 729.127 694.57C728.954 692.143 728.737 690.54 728.477 689.76C728.131 688.893 727.524 688.373 726.657 688.2C725.791 687.94 724.404 687.81 722.497 687.81H721.197V671.95C724.664 669.177 729.084 667.79 734.457 667.79C742.257 667.79 747.501 670.173 750.187 674.94C751.401 677.02 752.224 679.577 752.657 682.61C753.091 685.557 753.307 689.197 753.307 693.53V735H729.257V703.67ZM781.113 638.41H805.163V657.13H781.113V638.41ZM781.113 668.7H805.163V735H781.113V668.7Z" fill="#831290"/>
<path d="M566.41 638.41V637.41H565.41V638.41H566.41ZM590.46 638.41H591.46V637.41H590.46V638.41ZM590.46 657.13V658.13H591.46V657.13H590.46ZM566.41 657.13H565.41V658.13H566.41V657.13ZM566.41 668.7V667.7H565.41V668.7H566.41ZM590.46 668.7H591.46V667.7H590.46V668.7ZM590.46 735V736H591.46V735H590.46ZM566.41 735H565.41V736H566.41V735ZM566.41 639.41H590.46V637.41H566.41V639.41ZM589.46 638.41V657.13H591.46V638.41H589.46ZM590.46 656.13H566.41V658.13H590.46V656.13ZM567.41 657.13V638.41H565.41V657.13H567.41ZM566.41 669.7H590.46V667.7H566.41V669.7ZM589.46 668.7V735H591.46V668.7H589.46ZM590.46 734H566.41V736H590.46V734ZM567.41 735V668.7H565.41V735H567.41ZM661.288 686.51L661.13 687.497L661.16 687.502L661.191 687.505L661.288 686.51ZM646.208 686.51H645.208V687.864L646.502 687.466L646.208 686.51ZM646.208 667.66L646.222 666.66L645.208 666.646V667.66H646.208ZM665.318 670H666.318V669.199L665.536 669.024L665.318 670ZM665.318 686.9L665.221 687.895L666.318 688.001V686.9H665.318ZM629.178 733.57L628.796 734.494L628.796 734.494L629.178 733.57ZM620.338 726.29L621.197 725.779L621.192 725.769L621.186 725.76L620.338 726.29ZM616.958 716.54L615.964 716.656L615.966 716.667L615.967 716.678L616.958 716.54ZM616.958 688.33L615.965 688.212L615.965 688.212L616.958 688.33ZM619.688 678.71L618.798 678.253L618.793 678.263L619.688 678.71ZM627.098 671.3L627.563 672.185L627.572 672.18L627.098 671.3ZM640.748 667.92H641.748V666.841L640.672 666.923L640.748 667.92ZM641.008 710.43L640.012 710.521L640.014 710.543L640.017 710.565L641.008 710.43ZM642.438 714.85L641.606 715.405L641.621 715.428L641.638 715.45L642.438 714.85ZM645.688 717.06L645.389 718.014L645.397 718.017L645.405 718.019L645.688 717.06ZM661.418 717.32L661.301 716.327L661.285 716.329L661.269 716.331L661.418 717.32ZM665.838 716.8H666.838V715.675L665.721 715.807L665.838 716.8ZM665.838 733.7L666.074 734.672L666.838 734.486V733.7H665.838ZM661.446 685.523C659.2 685.163 656.017 684.99 651.928 684.99V686.99C655.985 686.99 659.042 687.163 661.13 687.497L661.446 685.523ZM651.928 684.99C649.236 684.99 647.196 685.16 645.914 685.554L646.502 687.466C647.472 687.167 649.246 686.99 651.928 686.99V684.99ZM647.208 686.51V667.66H645.208V686.51H647.208ZM646.194 668.66C652.272 668.746 658.573 669.516 665.099 670.976L665.536 669.024C658.889 667.537 652.45 666.748 646.222 666.66L646.194 668.66ZM664.318 670V686.9H666.318V670H664.318ZM665.414 685.905L661.384 685.515L661.191 687.505L665.221 687.895L665.414 685.905ZM645.298 735.04C638.603 735.04 633.376 734.222 629.559 732.646L628.796 734.494C632.953 736.211 638.473 737.04 645.298 737.04V735.04ZM629.559 732.646C625.74 731.068 622.977 728.772 621.197 725.779L619.478 726.801C621.512 730.222 624.642 732.779 628.796 734.494L629.559 732.646ZM621.186 725.76C619.537 723.122 618.452 720.01 617.948 716.402L615.967 716.678C616.504 720.523 617.671 723.911 619.49 726.82L621.186 725.76ZM617.951 716.424C617.524 712.752 617.308 707.941 617.308 701.98H615.308C615.308 707.979 615.525 712.875 615.964 716.656L617.951 716.424ZM617.308 701.98C617.308 696.542 617.524 692.035 617.951 688.448L615.965 688.212C615.525 691.905 615.308 696.498 615.308 701.98H617.308ZM617.951 688.448C618.373 684.902 619.255 681.81 620.582 679.157L618.793 678.263C617.347 681.156 616.409 684.478 615.965 688.212L617.951 688.448ZM620.577 679.167C622.127 676.149 624.446 673.826 627.563 672.185L626.632 670.415C623.163 672.241 620.542 674.857 618.798 678.253L620.577 679.167ZM627.572 672.18C630.783 670.451 635.18 669.345 640.823 668.917L640.672 666.923C634.875 667.362 630.172 668.509 626.624 670.42L627.572 672.18ZM639.748 667.92V701.85H641.748V667.92H639.748ZM639.748 701.85C639.748 705.67 639.834 708.567 640.012 710.521L642.004 710.339C641.834 708.48 641.748 705.657 641.748 701.85H639.748ZM640.017 710.565C640.287 712.549 640.795 714.189 641.606 715.405L643.27 714.295C642.694 713.431 642.248 712.125 641.998 710.295L640.017 710.565ZM641.638 715.45C642.558 716.677 643.827 717.526 645.389 718.014L645.986 716.106C644.775 715.727 643.877 715.103 643.238 714.25L641.638 715.45ZM645.405 718.019C647.014 718.493 649.206 718.71 651.928 718.71V716.71C649.276 716.71 647.308 716.494 645.97 716.101L645.405 718.019ZM651.928 718.71C656.516 718.71 659.749 718.581 661.566 718.309L661.269 716.331C659.619 716.579 656.526 716.71 651.928 716.71V718.71ZM661.535 718.313L665.954 717.793L665.721 715.807L661.301 716.327L661.535 718.313ZM664.838 716.8V733.7H666.838V716.8H664.838ZM665.601 732.728C659.273 734.268 652.506 735.04 645.298 735.04V737.04C652.649 737.04 659.576 736.252 666.074 734.672L665.601 732.728ZM691.687 638.41V637.41H690.687V638.41H691.687ZM715.737 638.41H716.737V637.41H715.737V638.41ZM715.737 735V736H716.737V735H715.737ZM691.687 735H690.687V736H691.687V735ZM729.127 694.57L730.126 694.511L730.125 694.499L729.127 694.57ZM728.477 689.76L729.426 689.444L729.417 689.416L729.406 689.389L728.477 689.76ZM726.657 688.2L726.37 689.158L726.415 689.171L726.461 689.181L726.657 688.2ZM721.197 687.81H720.197V688.81H721.197V687.81ZM721.197 671.95L720.573 671.169L720.197 671.469V671.95H721.197ZM750.187 674.94L749.316 675.431L749.32 675.437L749.324 675.444L750.187 674.94ZM752.657 682.61L751.667 682.751L751.668 682.755L752.657 682.61ZM753.307 735V736H754.307V735H753.307ZM729.257 735H728.257V736H729.257V735ZM691.687 639.41H715.737V637.41H691.687V639.41ZM714.737 638.41V735H716.737V638.41H714.737ZM715.737 734H691.687V736H715.737V734ZM692.687 735V638.41H690.687V735H692.687ZM730.257 703.67C730.257 699.082 730.214 696.019 730.126 694.511L728.129 694.629C728.214 696.068 728.257 699.071 728.257 703.67H730.257ZM730.125 694.499C729.953 692.093 729.732 690.363 729.426 689.444L727.529 690.076C727.742 690.717 727.955 692.194 728.13 694.641L730.125 694.499ZM729.406 689.389C728.942 688.229 728.073 687.463 726.853 687.219L726.461 689.181C726.975 689.283 727.319 689.557 727.549 690.131L729.406 689.389ZM726.945 687.242C725.929 686.938 724.418 686.81 722.497 686.81V688.81C724.39 688.81 725.652 688.942 726.37 689.158L726.945 687.242ZM722.497 686.81H721.197V688.81H722.497V686.81ZM722.197 687.81V671.95H720.197V687.81H722.197ZM721.822 672.731C725.076 670.127 729.262 668.79 734.457 668.79V666.79C728.906 666.79 724.252 668.226 720.573 671.169L721.822 672.731ZM734.457 668.79C742.068 668.79 746.877 671.104 749.316 675.431L751.058 674.449C748.124 669.243 742.447 666.79 734.457 666.79V668.79ZM749.324 675.444C750.457 677.386 751.248 679.813 751.667 682.751L753.647 682.469C753.2 679.341 752.345 676.654 751.051 674.436L749.324 675.444ZM751.668 682.755C752.092 685.638 752.307 689.226 752.307 693.53H754.307C754.307 689.168 754.09 685.476 753.647 682.465L751.668 682.755ZM752.307 693.53V735H754.307V693.53H752.307ZM753.307 734H729.257V736H753.307V734ZM730.257 735V703.67H728.257V735H730.257ZM781.113 638.41V637.41H780.113V638.41H781.113ZM805.163 638.41H806.163V637.41H805.163V638.41ZM805.163 657.13V658.13H806.163V657.13H805.163ZM781.113 657.13H780.113V658.13H781.113V657.13ZM781.113 668.7V667.7H780.113V668.7H781.113ZM805.163 668.7H806.163V667.7H805.163V668.7ZM805.163 735V736H806.163V735H805.163ZM781.113 735H780.113V736H781.113V735ZM781.113 639.41H805.163V637.41H781.113V639.41ZM804.163 638.41V657.13H806.163V638.41H804.163ZM805.163 656.13H781.113V658.13H805.163V656.13ZM782.113 657.13V638.41H780.113V657.13H782.113ZM781.113 669.7H805.163V667.7H781.113V669.7ZM804.163 668.7V735H806.163V668.7H804.163ZM805.163 734H781.113V736H805.163V734ZM782.113 735V668.7H780.113V735H782.113Z" fill="black"/>
<path d="M791.056 664.027V625C790.796 625.516 788.901 627.457 783.395 631.091C777.89 634.726 774.176 639.007 773.007 640.693C771.493 642.999 769.372 649.159 773.007 655.354C776.643 661.549 786.555 663.717 791.056 664.027Z" fill="#622782"/>
<path d="M790.996 664.027V625C790.996 625 793.152 627.457 798.657 631.091C804.163 634.726 807.876 639.007 809.045 640.693C810.56 642.999 812.681 649.159 809.045 655.354C805.409 661.549 795.498 663.717 790.996 664.027Z" fill="#622782"/>
<path d="M790.964 661.709V627.099C790.734 627.557 789.053 629.278 784.17 632.501C779.288 635.724 775.994 639.52 774.958 641.016C773.615 643.061 771.734 648.524 774.958 654.018C778.182 659.511 786.972 661.434 790.964 661.709Z" fill="#F9F5DF"/>
<path d="M790.911 661.709V627.099C790.911 627.099 792.823 629.278 797.705 632.501C802.587 635.724 805.881 639.52 806.917 641.016C808.261 643.061 810.141 648.524 806.917 654.018C803.693 659.511 794.903 661.434 790.911 661.709Z" fill="#F9F5DF"/>
<path d="M806.228 648.066C806.228 654.943 799.474 659.511 791.143 659.511C782.812 659.511 776.058 654.943 776.058 648.066C776.058 641.189 783.426 634.149 791.143 632.135C797.244 633.874 806.228 641.189 806.228 648.066Z" fill="#8F2C9A"/>
<ellipse cx="784.693" cy="643.58" rx="2.07273" ry="1.64809" fill="#F9F5DF"/>
<ellipse cx="790.911" cy="640.833" rx="2.07273" ry="1.64809" fill="#F9F5DF"/>
<ellipse cx="797.129" cy="643.58" rx="2.07273" ry="1.64809" fill="#F9F5DF"/>
<ellipse cx="797.129" cy="649.256" rx="2.07273" ry="1.64809" fill="#F9F5DF"/>
<ellipse cx="790.911" cy="652.003" rx="2.07273" ry="1.64809" fill="#F9F5DF"/>
<ellipse cx="784.693" cy="649.256" rx="2.07273" ry="1.64809" fill="#F9F5DF"/>
<ellipse cx="790.911" cy="646.51" rx="2.07273" ry="1.64809" fill="#F9F5DF"/>
<path d="M579.056 664.027V625C578.796 625.516 576.901 627.457 571.395 631.091C565.89 634.726 562.176 639.007 561.007 640.693C559.493 642.999 557.372 649.159 561.007 655.354C564.643 661.549 574.555 663.717 579.056 664.027Z" fill="#622782"/>
<path d="M578.996 664.027V625C578.996 625 581.152 627.457 586.657 631.091C592.163 634.726 595.876 639.007 597.045 640.693C598.56 642.999 600.681 649.159 597.045 655.354C593.409 661.549 583.498 663.717 578.996 664.027Z" fill="#622782"/>
<path d="M578.964 661.709V627.099C578.734 627.557 577.053 629.278 572.17 632.501C567.288 635.724 563.994 639.52 562.958 641.016C561.615 643.061 559.734 648.524 562.958 654.018C566.182 659.511 574.972 661.434 578.964 661.709Z" fill="#F9F5DF"/>
<path d="M578.911 661.709V627.099C578.911 627.099 580.823 629.278 585.705 632.501C590.587 635.724 593.881 639.52 594.917 641.016C596.261 643.061 598.141 648.524 594.917 654.018C591.693 659.511 582.903 661.434 578.911 661.709Z" fill="#F9F5DF"/>
<path d="M594.228 648.066C594.228 654.943 587.474 659.511 579.143 659.511C570.812 659.511 564.058 654.943 564.058 648.066C564.058 641.189 571.426 634.149 579.143 632.135C585.244 633.874 594.228 641.189 594.228 648.066Z" fill="#8F2C9A"/>
<ellipse cx="572.693" cy="643.58" rx="2.07273" ry="1.64809" fill="#F9F5DF"/>
<ellipse cx="578.911" cy="640.833" rx="2.07273" ry="1.64809" fill="#F9F5DF"/>
<ellipse cx="585.129" cy="643.58" rx="2.07273" ry="1.64809" fill="#F9F5DF"/>
<ellipse cx="585.129" cy="649.256" rx="2.07273" ry="1.64809" fill="#F9F5DF"/>
<ellipse cx="578.911" cy="652.003" rx="2.07273" ry="1.64809" fill="#F9F5DF"/>
<ellipse cx="572.693" cy="649.256" rx="2.07273" ry="1.64809" fill="#F9F5DF"/>
<ellipse cx="578.911" cy="646.51" rx="2.07273" ry="1.64809" fill="#F9F5DF"/>
<path d="M492 556.5H491.744L491.594 556.708L471.083 585.208L470.523 585.986L471.482 586L577.645 587.5L578.152 587.507V587V557V556.5H577.652H492Z" fill="#500D74" stroke="black"/>
<mask id="path-25-outside-1" maskUnits="userSpaceOnUse" x="451" y="585" width="96" height="152" fill="black">
<rect fill="white" x="451" y="585" width="96" height="152"/>
<path fill-rule="evenodd" clip-rule="evenodd" d="M518.255 587.083L470.786 587L453 735.539L501.407 720.858L509.44 657.074H545.486V636.957H511.974L518.255 587.083Z"/>
</mask>
<path fill-rule="evenodd" clip-rule="evenodd" d="M518.255 587.083L470.786 587L453 735.539L501.407 720.858L509.44 657.074H545.486V636.957H511.974L518.255 587.083Z" fill="#831290"/>
<path d="M470.786 587L470.788 586L469.899 585.998L469.793 586.881L470.786 587ZM518.255 587.083L519.247 587.208L519.389 586.085L518.257 586.083L518.255 587.083ZM453 735.539L452.007 735.42L451.825 736.94L453.29 736.496L453 735.539ZM501.407 720.858L501.697 721.814L502.318 721.626L502.399 720.982L501.407 720.858ZM509.44 657.074V656.074H508.558L508.448 656.949L509.44 657.074ZM545.486 657.074V658.074H546.486V657.074H545.486ZM545.486 636.957H546.486V635.957H545.486V636.957ZM511.974 636.957L510.982 636.832L510.84 637.957H511.974V636.957ZM470.784 588L518.254 588.083L518.257 586.083L470.788 586L470.784 588ZM453.993 735.658L471.779 587.119L469.793 586.881L452.007 735.42L453.993 735.658ZM501.117 719.901L452.71 734.582L453.29 736.496L501.697 721.814L501.117 719.901ZM508.448 656.949L500.415 720.733L502.399 720.982L510.432 657.199L508.448 656.949ZM545.486 656.074H509.44V658.074H545.486V656.074ZM544.486 636.957V657.074H546.486V636.957H544.486ZM511.974 637.957H545.486V635.957H511.974V637.957ZM517.263 586.958L510.982 636.832L512.966 637.082L519.247 587.208L517.263 586.958Z" fill="black" mask="url(#path-25-outside-1)"/>
<path d="M334.876 740.83V555C333.828 557.458 326.184 566.7 303.983 584.005C281.782 601.31 266.807 621.696 262.095 629.725C255.986 640.705 247.434 670.038 262.095 699.535C276.756 729.031 316.724 739.355 334.876 740.83Z" fill="#500D74"/>
<path d="M334.635 740.83V555C334.635 555 343.326 566.7 365.527 584.005C387.728 601.31 402.703 621.696 407.415 629.725C413.524 640.705 422.076 670.038 407.415 699.535C392.754 729.031 352.786 739.355 334.635 740.83Z" fill="#500D74"/>
<path d="M334.507 728.775V566.024C333.59 568.177 326.895 576.271 307.452 591.427C288.008 606.583 274.893 624.436 270.766 631.469C265.416 641.085 257.926 666.774 270.766 692.608C283.606 718.441 318.61 727.483 334.507 728.775Z" fill="#F9F5D2"/>
<path d="M334.296 728.775V566.024C334.296 566.024 341.909 576.271 361.352 591.427C380.796 606.583 393.911 624.436 398.038 631.469C403.388 641.085 410.878 666.775 398.038 692.608C385.198 718.441 350.194 727.483 334.296 728.775Z" fill="#F9F5D2"/>
<path d="M395.293 664.622C395.293 696.961 368.397 718.441 335.22 718.441C302.042 718.441 275.147 696.961 275.147 664.622C275.147 632.282 304.489 599.177 335.22 589.705C359.518 597.885 395.293 632.282 395.293 664.622Z" fill="#831290"/>
<ellipse cx="309.534" cy="643.524" rx="8.25428" ry="7.75002" fill="#FBF5D8"/>
<ellipse cx="334.296" cy="630.608" rx="8.25428" ry="7.75002" fill="#FBF5D8"/>
<ellipse cx="359.059" cy="643.524" rx="8.25428" ry="7.75002" fill="#FBF5D8"/>
<ellipse cx="359.059" cy="670.219" rx="8.25428" ry="7.75002" fill="#FBF5D8"/>
<ellipse cx="334.296" cy="683.135" rx="8.25428" ry="7.75002" fill="#FBF5D8"/>
<ellipse cx="309.534" cy="670.219" rx="8.25428" ry="7.75002" fill="#FBF5D8"/>
<ellipse cx="334.296" cy="657.302" rx="8.25428" ry="7.75002" fill="#FBF5D8"/>
</svg>
